# xmcd
#
# Track frame offsets: 
#        150
#        19823
#        42519
#        60920
#        77840
#        96327
#        111213
#        131191
#        147915
#        169002
#        181694
#        202783
#        225038
#
# Disc length: 3377 seconds
#
# Revision: 0
# Processed by: cddbd v1.5.2PL0 Copyright (c) Steve Scherf et al.
# Submitted via: ExactAudioCopy v0.95b4
#
DISCID=a00d2f0d
DTITLE=Joy Enriquez - Atmosphere of heaven
DYEAR=1900
DGENRE=R&B
TTITLE0=In his name
TTITLE1=Highest praise
TTITLE2=Been so good
TTITLE3=Get to know him
TTITLE4=Don't let you go
TTITLE5=Atmosphere of heaven
TTITLE6=This place
TTITLE7=Revive us
TTITLE8=Come into my life
TTITLE9=Simple
TTITLE10=Take my hand
TTITLE11=I knew
TTITLE12=Why do you love me
EXTD=
EXTT0=
EXTT1=
EXTT2=
EXTT3=
EXTT4=
EXTT5=
EXTT6=
EXTT7=
EXTT8=
EXTT9=
EXTT10=
EXTT11=
EXTT12=
PLAYORDER=
